<svg xmlns="http://www.w3.org/2000/svg" width="1200" height="630" viewBox="0 0 1200 630" role="img" aria-labelledby="title desc">
    <title id="title">Prva gradska liga social preview</title>
    <desc id="desc">Sportski poster s nogometnim terenom, ligaskom tablicom i naslovom Prva gradska liga.</desc>
    <defs>
        <linearGradient id="bg" x1="0" y1="0" x2="1" y2="1">
            <stop offset="0%" stop-color="#0f3b2f"/>
            <stop offset="55%" stop-color="#1d5c45"/>
            <stop offset="100%" stop-color="#2f6f5f"/>
        </linearGradient>
        <linearGradient id="panel" x1="0" y1="0" x2="1" y2="1">
            <stop offset="0%" stop-color="#fff7ea" stop-opacity="0.96"/>
            <stop offset="100%" stop-color="#efe0c0" stop-opacity="0.9"/>
        </linearGradient>
        <linearGradient id="accent" x1="0" y1="0" x2="1" y2="1">
            <stop offset="0%" stop-color="#d76a36"/>
            <stop offset="100%" stop-color="#b8572a"/>
        </linearGradient>
        <filter id="shadow" x="-20%" y="-20%" width="140%" height="140%">
            <feDropShadow dx="0" dy="22" stdDeviation="24" flood-color="#0b211a" flood-opacity="0.22"/>
        </filter>
        <pattern id="pitch-stripes" width="180" height="180" patternUnits="userSpaceOnUse" patternTransform="rotate(18)">
            <rect width="180" height="180" fill="none"/>
            <rect width="90" height="180" fill="#ffffff" fill-opacity="0.035"/>
        </pattern>
    </defs>

    <rect width="1200" height="630" fill="url(#bg)"/>
    <rect width="1200" height="630" fill="url(#pitch-stripes)"/>
    <circle cx="1020" cy="118" r="168" fill="#ffffff" fill-opacity="0.06"/>
    <circle cx="146" cy="564" r="188" fill="#d76a36" fill-opacity="0.12"/>

    <g opacity="0.22">
        <rect x="86" y="70" width="1028" height="490" rx="28" fill="none" stroke="#eaf5ec" stroke-width="4"/>
        <line x1="600" y1="70" x2="600" y2="560" stroke="#eaf5ec" stroke-width="4"/>
        <circle cx="600" cy="315" r="72" fill="none" stroke="#eaf5ec" stroke-width="4"/>
        <rect x="86" y="184" width="134" height="260" rx="18" fill="none" stroke="#eaf5ec" stroke-width="4"/>
        <rect x="980" y="184" width="134" height="260" rx="18" fill="none" stroke="#eaf5ec" stroke-width="4"/>
    </g>

    <g filter="url(#shadow)">
        <rect x="62" y="72" width="612" height="486" rx="32" fill="url(#panel)"/>
        <rect x="706" y="102" width="430" height="426" rx="30" fill="#10382d" fill-opacity="0.78" stroke="#ffffff" stroke-opacity="0.14"/>
    </g>

    <g>
        <rect x="98" y="106" width="188" height="38" rx="19" fill="#dff1e7"/>
        <text x="192" y="131" text-anchor="middle" font-family="Arial, Helvetica, sans-serif" font-size="18" font-weight="700" letter-spacing="2" fill="#1d5c45">KAKO STOJIMO?</text>

        <text x="98" y="220" font-family="Arial Black, Arial, Helvetica, sans-serif" font-size="76" font-weight="900" fill="#16281d">PRVA</text>
        <text x="98" y="302" font-family="Arial Black, Arial, Helvetica, sans-serif" font-size="76" font-weight="900" fill="#16281d">GRADSKA</text>
        <text x="98" y="384" font-family="Arial Black, Arial, Helvetica, sans-serif" font-size="76" font-weight="900" fill="#16281d">LIGA</text>

        <text x="98" y="438" font-family="Arial, Helvetica, sans-serif" font-size="28" font-weight="700" fill="#3c5243">Gradovi kao klubovi. Place, najam i standard kao semafor.</text>
        <text x="98" y="479" font-family="Courier New, monospace" font-size="24" font-weight="700" fill="#6b756c">zagreb.lol/usporedbe-gradova</text>

        <g transform="translate(98 512)">
            <rect width="236" height="18" rx="9" fill="#d8d1be"/>
            <rect width="164" height="18" rx="9" fill="url(#accent)"/>
            <text x="250" y="14" font-family="Courier New, monospace" font-size="16" font-weight="700" fill="#5f6b61">DOMACI TIM: ZAGREB</text>
        </g>
    </g>

    <g>
        <rect x="742" y="136" width="154" height="42" rx="21" fill="#f6c9b3"/>
        <text x="819" y="163" text-anchor="middle" font-family="Arial, Helvetica, sans-serif" font-size="19" font-weight="700" letter-spacing="2" fill="#7a351c">SEMAFOR</text>

        <rect x="742" y="196" width="358" height="114" rx="26" fill="#0c2d24" stroke="#d7f2e5" stroke-opacity="0.12"/>
        <text x="778" y="240" font-family="Arial, Helvetica, sans-serif" font-size="28" font-weight="700" fill="#eef8f2">Zagreb</text>
        <text x="1060" y="246" text-anchor="end" font-family="Arial Black, Arial, Helvetica, sans-serif" font-size="54" font-weight="900" fill="#ffffff">03</text>
        <text x="778" y="286" font-family="Arial, Helvetica, sans-serif" font-size="28" font-weight="700" fill="#eef8f2">Liga gradova</text>
        <text x="1060" y="292" text-anchor="end" font-family="Arial Black, Arial, Helvetica, sans-serif" font-size="54" font-weight="900" fill="#ffffff">01</text>

        <text x="742" y="354" font-family="Arial, Helvetica, sans-serif" font-size="24" font-weight="700" fill="#eef8f2">TABLICA</text>
        <line x1="742" y1="370" x2="1100" y2="370" stroke="#d7f2e5" stroke-opacity="0.18"/>

        <g font-family="Courier New, monospace" font-size="22" font-weight="700">
            <text x="752" y="410" fill="#dff1e7">#1</text>
            <text x="806" y="410" fill="#ffffff">Zagreb</text>
            <text x="1084" y="410" text-anchor="end" fill="#f6c9b3">52 B</text>

            <text x="752" y="448" fill="#dff1e7">#2</text>
            <text x="806" y="448" fill="#ffffff">Ljubljana</text>
            <text x="1084" y="448" text-anchor="end" fill="#d7f2e5">49 B</text>

            <text x="752" y="486" fill="#dff1e7">#3</text>
            <text x="806" y="486" fill="#ffffff">Bec</text>
            <text x="1084" y="486" text-anchor="end" fill="#d7f2e5">47 B</text>
        </g>
    </g>

    <g transform="translate(988 58)">
        <circle cx="66" cy="66" r="54" fill="#ffffff"/>
        <circle cx="66" cy="66" r="52" fill="none" stroke="#15271d" stroke-width="4"/>
        <polygon points="66,32 86,46 78,70 54,70 46,46" fill="#15271d"/>
        <polygon points="35,58 48,48 58,72 42,84 28,74" fill="#15271d"/>
        <polygon points="97,58 110,74 96,84 74,72 84,48" fill="#15271d"/>
        <polygon points="54,96 78,96 86,118 66,131 46,118" fill="#15271d"/>
    </g>
</svg>